<svg xmlns="http://www.w3.org/2000/svg" xmlns:xlink="http://www.w3.org/1999/xlink" zoomAndPan="magnify" preserveAspectRatio="xMidYMid meet" version="1.0" viewBox="33.67 157.92 309.1 60.19"><defs><g/></defs><g fill="#000000" fill-opacity="1"><g transform="translate(37.500002, 205.591544)"><g><path d="M 6.0625 -12.71875 C 5.664062 -12.882812 5.46875 -12.925781 5.46875 -12.84375 C 5.425781 -12.800781 5.363281 -12.628906 5.28125 -12.328125 C 5.207031 -12.035156 5.113281 -11.691406 5 -11.296875 C 4.71875 -10.191406 4.390625 -9.003906 4.015625 -7.734375 C 3.640625 -6.460938 3.3125 -5.347656 3.03125 -4.390625 C 2.75 -3.441406 2.570312 -2.847656 2.5 -2.609375 C 2.34375 -2.097656 2.320312 -1.84375 2.4375 -1.84375 C 2.476562 -1.84375 3.082031 -2.128906 4.25 -2.703125 C 5.414062 -3.273438 6.796875 -3.941406 8.390625 -4.703125 C 13.335938 -7.160156 17.285156 -9.3125 20.234375 -11.15625 C 23.191406 -13 25.503906 -14.734375 27.171875 -16.359375 L 28.359375 -17.546875 L 27.46875 -17.65625 C 27 -17.738281 26.316406 -17.757812 25.421875 -17.71875 C 24.523438 -17.675781 23.601562 -17.597656 22.65625 -17.484375 C 21.707031 -17.367188 20.851562 -17.226562 20.09375 -17.0625 C 15.414062 -16.113281 11.96875 -14.882812 9.75 -13.375 C 9.15625 -12.90625 8.679688 -12.628906 8.328125 -12.546875 C 8.003906 -12.429688 7.625 -12.390625 7.1875 -12.421875 C 6.757812 -12.460938 6.382812 -12.5625 6.0625 -12.71875 Z M 11.421875 -33.546875 C 11.296875 -33.066406 11.070312 -32.320312 10.75 -31.3125 C 10.4375 -30.300781 10.144531 -29.316406 9.875 -28.359375 C 8.488281 -23.960938 7.796875 -21.566406 7.796875 -21.171875 C 7.796875 -21.015625 7.84375 -20.960938 7.9375 -21.015625 C 8.039062 -21.078125 8.289062 -21.269531 8.6875 -21.59375 C 9.125 -21.90625 10.160156 -22.632812 11.796875 -23.78125 C 13.441406 -24.9375 15.535156 -26.363281 18.078125 -28.0625 C 19.660156 -29.175781 21.234375 -30.304688 22.796875 -31.453125 C 24.367188 -32.609375 25.648438 -33.601562 26.640625 -34.4375 C 27.078125 -34.789062 27.601562 -35.253906 28.21875 -35.828125 C 28.832031 -36.398438 29.375 -36.929688 29.84375 -37.421875 C 30.320312 -37.921875 30.5625 -38.191406 30.5625 -38.234375 C 30.5625 -38.316406 30.203125 -38.359375 29.484375 -38.359375 C 28.773438 -38.359375 27.882812 -38.328125 26.8125 -38.265625 C 25.75 -38.203125 24.648438 -38.113281 23.515625 -38 C 22.390625 -37.882812 21.390625 -37.742188 20.515625 -37.578125 C 19.609375 -37.421875 18.566406 -37.203125 17.390625 -36.921875 C 16.222656 -36.648438 15.148438 -36.363281 14.171875 -36.0625 C 13.203125 -35.769531 12.582031 -35.546875 12.3125 -35.390625 C 12.03125 -35.265625 11.734375 -34.648438 11.421875 -33.546875 Z M 4.046875 -30.328125 C 4.242188 -30.847656 4.320312 -31.15625 4.28125 -31.25 C 4.238281 -31.351562 4.039062 -31.421875 3.6875 -31.453125 C 3.132812 -31.578125 2.75 -31.914062 2.53125 -32.46875 C 2.3125 -33.019531 2.335938 -33.578125 2.609375 -34.140625 C 2.804688 -34.492188 3.269531 -34.992188 4 -35.640625 C 4.738281 -36.296875 5.425781 -36.828125 6.0625 -37.234375 C 6.539062 -37.546875 6.867188 -37.8125 7.046875 -38.03125 C 7.222656 -38.25 7.472656 -38.675781 7.796875 -39.3125 C 8.222656 -40.34375 8.710938 -41.253906 9.265625 -42.046875 C 9.828125 -42.835938 10.25 -43.3125 10.53125 -43.46875 C 11.4375 -43.945312 12.226562 -43.828125 12.90625 -43.109375 C 13.1875 -42.878906 13.351562 -42.679688 13.40625 -42.515625 C 13.46875 -42.359375 13.5 -42.082031 13.5 -41.6875 C 13.5 -41.175781 13.566406 -40.898438 13.703125 -40.859375 C 13.847656 -40.816406 14.351562 -40.914062 15.21875 -41.15625 C 18.664062 -42.0625 22.734375 -42.613281 27.421875 -42.8125 C 29.753906 -42.894531 31.460938 -42.804688 32.546875 -42.546875 C 33.640625 -42.285156 34.445312 -41.757812 34.96875 -40.96875 C 36 -39.507812 35.738281 -37.664062 34.1875 -35.4375 C 33.632812 -34.601562 32.84375 -33.679688 31.8125 -32.671875 C 30.78125 -31.660156 29.429688 -30.472656 27.765625 -29.109375 C 26.109375 -27.742188 24.007812 -26.085938 21.46875 -24.140625 C 20.519531 -23.429688 19.953125 -22.976562 19.765625 -22.78125 C 19.585938 -22.582031 19.679688 -22.519531 20.046875 -22.59375 C 20.273438 -22.675781 20.773438 -22.738281 21.546875 -22.78125 C 22.328125 -22.820312 23.191406 -22.84375 24.140625 -22.84375 C 25.097656 -22.84375 25.972656 -22.84375 26.765625 -22.84375 C 27.554688 -22.84375 28.085938 -22.800781 28.359375 -22.71875 C 31.816406 -22.082031 33.546875 -20.578125 33.546875 -18.203125 C 33.578125 -16.453125 32.582031 -14.523438 30.5625 -12.421875 C 28.539062 -10.328125 25.289062 -7.769531 20.8125 -4.75 C 14.664062 -0.707031 9.253906 2.378906 4.578125 4.515625 C 2.835938 5.304688 1.539062 5.8125 0.6875 6.03125 C -0.164062 6.25 -0.929688 6.28125 -1.609375 6.125 C -2.710938 5.8125 -3.410156 5.109375 -3.703125 4.015625 C -4.003906 2.921875 -3.78125 1.941406 -3.03125 1.078125 C -2.914062 0.910156 -2.863281 0.765625 -2.875 0.640625 C -2.894531 0.523438 -2.988281 0.289062 -3.15625 -0.0625 C -3.3125 -0.414062 -3.410156 -0.722656 -3.453125 -0.984375 C -3.492188 -1.242188 -3.492188 -1.75 -3.453125 -2.5 C -3.367188 -3.570312 -3.097656 -5.175781 -2.640625 -7.3125 C -2.191406 -9.457031 -1.609375 -11.863281 -0.890625 -14.53125 C -0.179688 -17.207031 0.609375 -19.929688 1.484375 -22.703125 C 2.359375 -25.484375 3.210938 -28.023438 4.046875 -30.328125 Z M 4.046875 -30.328125 "/></g></g></g><g fill="#000000" fill-opacity="1"><g transform="translate(72.107222, 205.591544)"><g><path d="M 15.046875 -14.265625 C 13.859375 -12.210938 12.828125 -10.570312 11.953125 -9.34375 C 11.078125 -8.113281 10.085938 -6.898438 8.984375 -5.703125 C 4.460938 -0.753906 0.832031 0.289062 -1.90625 -2.5625 C -2.5 -3.195312 -2.90625 -3.859375 -3.125 -4.546875 C -3.34375 -5.242188 -3.488281 -6.207031 -3.5625 -7.4375 C -3.601562 -8.820312 -3.492188 -10.265625 -3.234375 -11.765625 C -2.984375 -13.273438 -2.550781 -15 -1.9375 -16.9375 C -1.320312 -18.882812 -0.5 -21.164062 0.53125 -23.78125 C 1.164062 -25.332031 1.859375 -26.929688 2.609375 -28.578125 C 3.367188 -30.222656 3.984375 -31.441406 4.453125 -32.234375 C 5.722656 -34.253906 6.894531 -35.066406 7.96875 -34.671875 C 8.25 -34.546875 8.515625 -34.328125 8.765625 -34.015625 C 9.023438 -33.703125 9.15625 -33.40625 9.15625 -33.125 C 9.15625 -33.082031 9.015625 -32.6875 8.734375 -31.9375 C 8.460938 -31.1875 8.128906 -30.3125 7.734375 -29.3125 C 3.609375 -18.96875 1.546875 -11.953125 1.546875 -8.265625 C 1.546875 -7.753906 1.566406 -7.28125 1.609375 -6.84375 C 1.648438 -6.40625 1.6875 -6.144531 1.71875 -6.0625 C 2 -5.664062 2.8125 -6.0625 4.15625 -7.25 C 5.269531 -8.125 6.367188 -9.234375 7.453125 -10.578125 C 8.546875 -11.929688 9.75 -13.675781 11.0625 -15.8125 C 12.375 -17.957031 13.878906 -20.613281 15.578125 -23.78125 C 17.085938 -26.519531 18.285156 -28.703125 19.171875 -30.328125 C 20.066406 -31.953125 20.8125 -33.257812 21.40625 -34.25 C 21.601562 -34.570312 21.921875 -35.164062 22.359375 -36.03125 C 22.796875 -36.90625 23.234375 -37.835938 23.671875 -38.828125 C 24.304688 -40.222656 24.832031 -41.285156 25.25 -42.015625 C 25.664062 -42.742188 26.0625 -43.273438 26.4375 -43.609375 C 26.8125 -43.953125 27.253906 -44.179688 27.765625 -44.296875 C 28.203125 -44.460938 28.519531 -44.546875 28.71875 -44.546875 C 28.914062 -44.546875 29.210938 -44.460938 29.609375 -44.296875 C 30.171875 -44.140625 30.660156 -43.851562 31.078125 -43.4375 C 31.492188 -43.019531 31.78125 -42.535156 31.9375 -41.984375 C 32.050781 -41.671875 32.097656 -41.285156 32.078125 -40.828125 C 32.054688 -40.367188 31.925781 -39.710938 31.6875 -38.859375 C 31.457031 -38.003906 31.09375 -36.804688 30.59375 -35.265625 C 30.101562 -33.722656 29.441406 -31.679688 28.609375 -29.140625 C 28.410156 -28.503906 28.09375 -27.5 27.65625 -26.125 C 27.21875 -24.757812 26.800781 -23.445312 26.40625 -22.1875 C 26.007812 -20.914062 25.628906 -19.691406 25.265625 -18.515625 C 24.910156 -17.347656 24.675781 -16.585938 24.5625 -16.234375 C 24.4375 -15.921875 24.242188 -15.375 23.984375 -14.59375 C 23.734375 -13.820312 23.488281 -13.0625 23.25 -12.3125 C 23.007812 -11.5625 22.679688 -10.570312 22.265625 -9.34375 C 21.847656 -8.113281 21.460938 -7.019531 21.109375 -6.0625 C 20.753906 -5.113281 20.378906 -4.082031 19.984375 -2.96875 C 19.585938 -1.863281 19.289062 -1.03125 19.09375 -0.46875 C 18.894531 0.0820312 18.675781 0.613281 18.4375 1.125 C 18.195312 1.644531 18.035156 1.960938 17.953125 2.078125 C 17.554688 2.628906 17.039062 2.984375 16.40625 3.140625 C 15.78125 3.304688 15.1875 3.226562 14.625 2.90625 C 13.757812 2.476562 13.34375 1.488281 13.375 -0.0625 C 13.375 -0.457031 13.460938 -1.226562 13.640625 -2.375 C 13.828125 -3.53125 14.035156 -4.828125 14.265625 -6.265625 C 14.503906 -7.710938 14.753906 -9.109375 15.015625 -10.453125 C 15.273438 -11.804688 15.484375 -12.863281 15.640625 -13.625 C 15.796875 -14.25 15.921875 -14.78125 16.015625 -15.21875 C 16.117188 -15.65625 16.148438 -15.875 16.109375 -15.875 C 16.078125 -15.875 15.960938 -15.710938 15.765625 -15.390625 C 15.566406 -15.078125 15.328125 -14.703125 15.046875 -14.265625 Z M 15.046875 -14.265625 "/></g></g></g><g fill="#000000" fill-opacity="1"><g transform="translate(98.86534, 205.591544)"><g><path d="M 3.09375 2.265625 C 1.976562 2.023438 0.925781 1.414062 -0.0625 0.4375 C -1.050781 -0.53125 -1.722656 -1.628906 -2.078125 -2.859375 C -2.671875 -4.835938 -2.859375 -7.015625 -2.640625 -9.390625 C -2.421875 -11.773438 -1.78125 -14.53125 -0.71875 -17.65625 C 0.0390625 -19.800781 0.953125 -22.015625 2.015625 -24.296875 C 3.085938 -26.578125 4.269531 -28.773438 5.5625 -30.890625 C 6.851562 -33.015625 8.128906 -34.890625 9.390625 -36.515625 C 11.648438 -39.410156 13.691406 -41.300781 15.515625 -42.1875 C 17.335938 -43.082031 18.75 -42.894531 19.75 -41.625 C 20.144531 -41.15625 20.34375 -40.601562 20.34375 -39.96875 C 20.34375 -39.332031 20.222656 -38.742188 19.984375 -38.203125 C 19.742188 -37.671875 19.226562 -36.8125 18.4375 -35.625 C 18.039062 -35.101562 17.679688 -34.578125 17.359375 -34.046875 C 17.046875 -33.515625 16.847656 -33.148438 16.765625 -32.953125 C 16.566406 -32.472656 16.367188 -32.269531 16.171875 -32.34375 C 15.898438 -32.425781 15.800781 -32.695312 15.875 -33.15625 C 15.957031 -33.613281 16.296875 -34.753906 16.890625 -36.578125 L 17.1875 -37.46875 L 16.0625 -36.03125 C 15.101562 -34.882812 14.117188 -33.4375 13.109375 -31.6875 C 12.097656 -29.945312 11.109375 -28.054688 10.140625 -26.015625 C 9.171875 -23.972656 8.285156 -21.910156 7.484375 -19.828125 C 6.691406 -17.742188 6.03125 -15.769531 5.5 -13.90625 C 4.96875 -12.050781 4.640625 -10.429688 4.515625 -9.046875 C 4.398438 -8.015625 4.390625 -7.359375 4.484375 -7.078125 C 4.585938 -6.796875 4.859375 -6.65625 5.296875 -6.65625 C 5.929688 -6.65625 7 -7.03125 8.5 -7.78125 C 10.007812 -8.539062 11.796875 -9.5625 13.859375 -10.84375 C 15.921875 -12.132812 18.082031 -13.578125 20.34375 -15.171875 C 21.84375 -16.234375 22.859375 -16.910156 23.390625 -17.203125 C 23.929688 -17.503906 24.460938 -17.65625 24.984375 -17.65625 C 25.648438 -17.65625 26.222656 -17.46875 26.703125 -17.09375 C 27.179688 -16.71875 27.421875 -16.253906 27.421875 -15.703125 C 27.421875 -15.421875 27.3125 -14.90625 27.09375 -14.15625 C 26.875 -13.40625 26.644531 -12.75 26.40625 -12.1875 C 25.882812 -10.957031 24.523438 -9.367188 22.328125 -7.421875 C 20.128906 -5.484375 17.460938 -3.523438 14.328125 -1.546875 C 10.960938 0.628906 8.1875 1.898438 6 2.265625 C 5.25 2.421875 4.742188 2.5 4.484375 2.5 C 4.234375 2.5 3.769531 2.421875 3.09375 2.265625 Z M 3.09375 2.265625 "/></g></g></g><g fill="#000000" fill-opacity="1"><g transform="translate(125.147812, 205.591544)"><g><path d="M -3.6875 -17.71875 C -3.09375 -18 -2.398438 -18.363281 -1.609375 -18.8125 C -0.816406 -19.269531 -0.101562 -19.707031 0.53125 -20.125 C 1.164062 -20.539062 1.503906 -20.8125 1.546875 -20.9375 C 1.585938 -21.007812 1.71875 -21.421875 1.9375 -22.171875 C 2.15625 -22.929688 2.398438 -23.785156 2.671875 -24.734375 C 3.585938 -27.867188 4.5 -30.65625 5.40625 -33.09375 C 6.320312 -35.53125 7.207031 -37.507812 8.0625 -39.03125 C 8.914062 -40.5625 9.65625 -41.503906 10.28125 -41.859375 C 11.15625 -42.378906 12.007812 -42.242188 12.84375 -41.453125 C 13.238281 -41.128906 13.472656 -40.890625 13.546875 -40.734375 C 13.628906 -40.578125 13.671875 -40.28125 13.671875 -39.84375 C 13.671875 -39.5625 13.539062 -38.835938 13.28125 -37.671875 C 13.03125 -36.503906 12.726562 -35.226562 12.375 -33.84375 C 11.976562 -32.488281 11.648438 -31.273438 11.390625 -30.203125 C 11.128906 -29.140625 10.976562 -28.546875 10.9375 -28.421875 C 10.894531 -28.265625 10.894531 -28.175781 10.9375 -28.15625 C 10.976562 -28.132812 11.078125 -28.203125 11.234375 -28.359375 C 11.753906 -28.796875 12.46875 -29.453125 13.375 -30.328125 C 14.289062 -31.203125 15.265625 -32.164062 16.296875 -33.21875 C 17.328125 -34.269531 18.304688 -35.28125 19.234375 -36.25 C 20.171875 -37.21875 20.925781 -38.03125 21.5 -38.6875 C 22.070312 -39.34375 22.359375 -39.707031 22.359375 -39.78125 C 22.359375 -39.820312 22.601562 -40.117188 23.09375 -40.671875 C 23.59375 -41.234375 24.203125 -41.890625 24.921875 -42.640625 C 25.753906 -43.546875 26.347656 -44.1875 26.703125 -44.5625 C 27.054688 -44.945312 27.34375 -45.175781 27.5625 -45.25 C 27.78125 -45.332031 28.03125 -45.375 28.3125 -45.375 C 28.664062 -45.375 28.929688 -45.34375 29.109375 -45.28125 C 29.285156 -45.226562 29.515625 -45.0625 29.796875 -44.78125 C 30.703125 -43.863281 30.757812 -42.539062 29.96875 -40.8125 C 29.175781 -39.09375 27.375 -36.550781 24.5625 -33.1875 C 22.78125 -31.039062 20.773438 -28.859375 18.546875 -26.640625 C 16.328125 -24.421875 14.070312 -22.320312 11.78125 -20.34375 C 11.257812 -19.945312 10.828125 -19.597656 10.484375 -19.296875 C 10.148438 -19.003906 9.984375 -18.835938 9.984375 -18.796875 C 9.984375 -18.796875 10.585938 -18.785156 11.796875 -18.765625 C 13.015625 -18.742188 14.472656 -18.753906 16.171875 -18.796875 C 19.023438 -18.796875 21.265625 -18.734375 22.890625 -18.609375 C 24.515625 -18.492188 25.722656 -18.285156 26.515625 -17.984375 C 27.316406 -17.691406 27.894531 -17.25 28.25 -16.65625 C 29.351562 -14.75 28.320312 -13.238281 25.15625 -12.125 C 24.601562 -11.925781 23.976562 -11.75 23.28125 -11.59375 C 22.582031 -11.4375 21.707031 -11.273438 20.65625 -11.109375 C 19.613281 -10.953125 18.238281 -10.757812 16.53125 -10.53125 C 13.632812 -10.132812 11.382812 -9.828125 9.78125 -9.609375 C 8.175781 -9.390625 7.15625 -9.238281 6.71875 -9.15625 L 5.890625 -8.984375 L 4.75 -4.703125 C 4.125 -2.359375 3.660156 -0.671875 3.359375 0.359375 C 3.054688 1.390625 2.835938 2.0625 2.703125 2.375 C 2.566406 2.695312 2.398438 2.957031 2.203125 3.15625 C 1.484375 3.945312 0.671875 3.945312 -0.234375 3.15625 C -0.515625 2.875 -0.703125 2.625 -0.796875 2.40625 C -0.898438 2.1875 -0.992188 1.820312 -1.078125 1.3125 C -1.109375 1.070312 -1.113281 0.597656 -1.09375 -0.109375 C -1.082031 -0.828125 -1.066406 -1.640625 -1.046875 -2.546875 C -1.023438 -3.460938 -0.984375 -4.363281 -0.921875 -5.25 C -0.859375 -6.144531 -0.789062 -6.875 -0.71875 -7.4375 C -0.675781 -7.707031 -0.691406 -7.863281 -0.765625 -7.90625 C -0.847656 -7.945312 -1.050781 -7.925781 -1.375 -7.84375 C -2.394531 -7.644531 -3.5 -7.476562 -4.6875 -7.34375 C -5.882812 -7.207031 -6.976562 -7.140625 -7.96875 -7.140625 C -8.957031 -7.140625 -9.671875 -7.195312 -10.109375 -7.3125 C -10.984375 -7.632812 -11.71875 -8.117188 -12.3125 -8.765625 C -12.90625 -9.421875 -13.257812 -10.164062 -13.375 -11 C -13.539062 -12.3125 -13.195312 -13.351562 -12.34375 -14.125 C -11.488281 -14.894531 -9.8125 -15.65625 -7.3125 -16.40625 C -6.632812 -16.601562 -5.9375 -16.832031 -5.21875 -17.09375 C -4.507812 -17.351562 -4 -17.5625 -3.6875 -17.71875 Z M -3.6875 -17.71875 "/></g></g></g><g fill="#000000" fill-opacity="1"><g transform="translate(149.051699, 205.591544)"><g><path d="M 3.859375 -23.734375 L 4.28125 -24.984375 C 4.4375 -25.378906 4.65625 -25.941406 4.9375 -26.671875 C 5.21875 -27.398438 5.515625 -28.179688 5.828125 -29.015625 C 6.140625 -29.847656 6.425781 -30.570312 6.6875 -31.1875 C 6.945312 -31.800781 7.117188 -32.1875 7.203125 -32.34375 C 7.359375 -32.625 7.375 -32.773438 7.25 -32.796875 C 7.132812 -32.816406 6.71875 -32.785156 6 -32.703125 C 5.207031 -32.628906 4.414062 -32.640625 3.625 -32.734375 C 2.832031 -32.835938 2.21875 -33.023438 1.78125 -33.296875 C 1.144531 -33.734375 0.707031 -34.269531 0.46875 -34.90625 C 0.238281 -35.539062 0.300781 -36.113281 0.65625 -36.625 C 0.96875 -37.0625 1.429688 -37.421875 2.046875 -37.703125 C 2.660156 -37.984375 3.78125 -38.34375 5.40625 -38.78125 C 7.90625 -39.445312 10.472656 -40.007812 13.109375 -40.46875 C 15.742188 -40.925781 18.289062 -41.265625 20.75 -41.484375 C 23.207031 -41.703125 25.390625 -41.769531 27.296875 -41.6875 C 28.484375 -41.644531 29.421875 -41.40625 30.109375 -40.96875 C 30.804688 -40.53125 31.175781 -39.914062 31.21875 -39.125 C 31.257812 -38.53125 31.070312 -38.066406 30.65625 -37.734375 C 30.238281 -37.398438 29.457031 -37.050781 28.3125 -36.6875 C 27.789062 -36.53125 26.972656 -36.222656 25.859375 -35.765625 C 24.753906 -35.316406 23.6875 -34.832031 22.65625 -34.3125 C 21.582031 -33.832031 20.609375 -33.40625 19.734375 -33.03125 C 18.867188 -32.65625 18.359375 -32.425781 18.203125 -32.34375 C 17.878906 -32.226562 17.664062 -32.179688 17.5625 -32.203125 C 17.46875 -32.222656 17.363281 -32.3125 17.25 -32.46875 C 17.09375 -32.75 17.082031 -32.976562 17.21875 -33.15625 C 17.351562 -33.332031 17.757812 -33.617188 18.4375 -34.015625 C 18.75 -34.210938 19.035156 -34.378906 19.296875 -34.515625 C 19.554688 -34.660156 19.664062 -34.753906 19.625 -34.796875 C 19.625 -34.828125 19.21875 -34.773438 18.40625 -34.640625 C 17.59375 -34.503906 16.691406 -34.34375 15.703125 -34.15625 C 14.710938 -33.976562 13.921875 -33.832031 13.328125 -33.71875 L 12.25 -33.484375 L 10.875 -28.84375 C 10.476562 -27.570312 10.148438 -26.46875 9.890625 -25.53125 C 9.640625 -24.601562 9.535156 -24.140625 9.578125 -24.140625 C 9.578125 -24.097656 9.863281 -24.109375 10.4375 -24.171875 C 11.007812 -24.234375 11.671875 -24.300781 12.421875 -24.375 C 15.242188 -24.695312 17.285156 -24.828125 18.546875 -24.765625 C 19.816406 -24.703125 20.734375 -24.457031 21.296875 -24.03125 C 21.847656 -23.550781 22.203125 -22.984375 22.359375 -22.328125 C 22.515625 -21.671875 22.394531 -21.125 22 -20.6875 C 21.925781 -20.570312 21.617188 -20.382812 21.078125 -20.125 C 20.546875 -19.875 19.941406 -19.585938 19.265625 -19.265625 C 17.992188 -18.753906 16.898438 -18.25 15.984375 -17.75 C 15.078125 -17.257812 14.207031 -16.710938 13.375 -16.109375 C 12.539062 -15.515625 11.570312 -14.765625 10.46875 -13.859375 C 9.945312 -13.421875 9.507812 -13.050781 9.15625 -12.75 C 8.800781 -12.457031 8.625 -12.332031 8.625 -12.375 C 8.625 -12.445312 8.878906 -12.8125 9.390625 -13.46875 C 9.910156 -14.125 10.503906 -14.859375 11.171875 -15.671875 C 11.847656 -16.484375 12.382812 -17.128906 12.78125 -17.609375 C 13.34375 -18.234375 13.625 -18.585938 13.625 -18.671875 C 13.582031 -18.671875 13.253906 -18.617188 12.640625 -18.515625 C 12.023438 -18.421875 11.320312 -18.300781 10.53125 -18.15625 C 9.738281 -18.019531 9.035156 -17.894531 8.421875 -17.78125 C 7.804688 -17.664062 7.476562 -17.585938 7.4375 -17.546875 C 7.394531 -17.503906 7.285156 -17.210938 7.109375 -16.671875 C 6.929688 -16.140625 6.722656 -15.519531 6.484375 -14.8125 C 6.242188 -14.132812 5.992188 -13.398438 5.734375 -12.609375 C 5.484375 -11.816406 5.273438 -11.222656 5.109375 -10.828125 C 4.835938 -10.035156 4.691406 -9.566406 4.671875 -9.421875 C 4.648438 -9.285156 4.738281 -9.238281 4.9375 -9.28125 C 5.019531 -9.28125 5.117188 -9.289062 5.234375 -9.3125 C 5.347656 -9.332031 5.46875 -9.34375 5.59375 -9.34375 C 5.863281 -9.34375 6.554688 -9.476562 7.671875 -9.75 C 8.941406 -10.070312 10.082031 -10.300781 11.09375 -10.4375 C 12.101562 -10.570312 13.320312 -10.71875 14.75 -10.875 C 16.019531 -11.039062 17.40625 -11.140625 18.90625 -11.171875 C 20.414062 -11.210938 21.773438 -11.210938 22.984375 -11.171875 C 24.191406 -11.140625 24.957031 -11.0625 25.28125 -10.9375 C 26.144531 -10.582031 26.617188 -9.96875 26.703125 -9.09375 C 26.742188 -8.300781 26.148438 -7.707031 24.921875 -7.3125 C 23.804688 -6.957031 22.84375 -6.648438 22.03125 -6.390625 C 21.21875 -6.128906 20.375 -5.878906 19.5 -5.640625 C 18.632812 -5.410156 17.523438 -5.113281 16.171875 -4.75 C 13.640625 -4.082031 11.53125 -3.519531 9.84375 -3.0625 C 8.15625 -2.601562 6.707031 -2.195312 5.5 -1.84375 C 4.289062 -1.488281 3.09375 -1.113281 1.90625 -0.71875 C -0.0390625 -0.0820312 -1.597656 0.398438 -2.765625 0.734375 C -3.929688 1.078125 -4.832031 1.316406 -5.46875 1.453125 C -6.101562 1.597656 -6.597656 1.628906 -6.953125 1.546875 C -7.316406 1.460938 -7.675781 1.320312 -8.03125 1.125 C -8.382812 0.882812 -8.707031 0.546875 -9 0.109375 C -9.300781 -0.316406 -9.472656 -0.691406 -9.515625 -1.015625 C -9.554688 -1.765625 -9.117188 -2.503906 -8.203125 -3.234375 C -7.296875 -3.972656 -5.710938 -4.894531 -3.453125 -6 L -0.953125 -7.25 L -0.46875 -9.34375 C -0.351562 -9.9375 -0.175781 -10.695312 0.0625 -11.625 C 0.300781 -12.5625 0.535156 -13.40625 0.765625 -14.15625 C 0.972656 -14.945312 1.15625 -15.617188 1.3125 -16.171875 C 1.46875 -16.734375 1.546875 -17.03125 1.546875 -17.0625 C 1.546875 -17.144531 1.1875 -17.226562 0.46875 -17.3125 C -1.507812 -17.582031 -2.875 -18.394531 -3.625 -19.75 C -3.90625 -20.300781 -4.046875 -20.734375 -4.046875 -21.046875 C -4.046875 -21.367188 -3.945312 -21.6875 -3.75 -22 C -3.46875 -22.394531 -3.050781 -22.679688 -2.5 -22.859375 C -1.945312 -23.046875 -0.816406 -23.21875 0.890625 -23.375 Z M 3.859375 -23.734375 "/></g></g></g><g fill="#000000" fill-opacity="1"><g transform="translate(171.766287, 205.591544)"><g><path d="M 21.34375 -40.4375 C 21.34375 -40.238281 21.304688 -40.019531 21.234375 -39.78125 C 21.191406 -39.664062 21.195312 -39.585938 21.25 -39.546875 C 21.3125 -39.503906 21.484375 -39.503906 21.765625 -39.546875 C 21.921875 -39.585938 22.066406 -39.625 22.203125 -39.65625 C 22.347656 -39.695312 22.421875 -39.738281 22.421875 -39.78125 C 22.460938 -39.820312 22.429688 -39.898438 22.328125 -40.015625 C 22.234375 -40.140625 22.101562 -40.238281 21.9375 -40.3125 C 21.707031 -40.507812 21.5625 -40.617188 21.5 -40.640625 C 21.4375 -40.660156 21.382812 -40.59375 21.34375 -40.4375 Z M 18.4375 -30.921875 C 18.195312 -30.210938 17.847656 -29.179688 17.390625 -27.828125 C 16.929688 -26.484375 16.445312 -25.035156 15.9375 -23.484375 C 15.425781 -21.941406 14.953125 -20.503906 14.515625 -19.171875 C 14.078125 -17.847656 13.738281 -16.847656 13.5 -16.171875 C 12.863281 -14.078125 12.257812 -11.90625 11.6875 -9.65625 C 11.113281 -7.414062 10.632812 -5.351562 10.25 -3.46875 C 9.875 -1.59375 9.648438 -0.0976562 9.578125 1.015625 C 9.535156 1.722656 9.523438 2.15625 9.546875 2.3125 C 9.566406 2.476562 9.675781 2.660156 9.875 2.859375 C 9.945312 2.972656 10.03125 3.117188 10.125 3.296875 C 10.226562 3.472656 10.300781 3.644531 10.34375 3.8125 C 10.382812 4.125 10.265625 4.585938 9.984375 5.203125 C 9.710938 5.816406 9.414062 6.28125 9.09375 6.59375 C 8.820312 6.832031 8.457031 7 8 7.09375 C 7.539062 7.195312 7.132812 7.191406 6.78125 7.078125 C 6.425781 6.992188 6.078125 6.765625 5.734375 6.390625 C 5.398438 6.015625 5.132812 5.628906 4.9375 5.234375 C 4.738281 4.753906 4.566406 3.859375 4.421875 2.546875 C 4.285156 1.242188 4.179688 -0.195312 4.109375 -1.78125 C 4.066406 -4.320312 4.113281 -6.53125 4.25 -8.40625 C 4.382812 -10.289062 4.65625 -12.285156 5.0625 -14.390625 C 5.457031 -16.253906 5.867188 -17.945312 6.296875 -19.46875 C 6.734375 -21 7.332031 -22.875 8.09375 -25.09375 C 8.40625 -26.007812 8.679688 -26.789062 8.921875 -27.4375 C 9.160156 -28.09375 9.28125 -28.441406 9.28125 -28.484375 C 9.238281 -28.597656 9.117188 -28.617188 8.921875 -28.546875 C 7.804688 -28.148438 6.613281 -27.722656 5.34375 -27.265625 C 4.082031 -26.804688 3.234375 -26.476562 2.796875 -26.28125 C 2.398438 -26.125 1.8125 -25.914062 1.03125 -25.65625 C 0.257812 -25.40625 -0.535156 -25.148438 -1.359375 -24.890625 C -2.191406 -24.628906 -2.945312 -24.410156 -3.625 -24.234375 C -4.300781 -24.054688 -4.757812 -23.945312 -5 -23.90625 C -5.789062 -23.820312 -6.460938 -23.957031 -7.015625 -24.3125 C -7.566406 -24.675781 -7.882812 -25.195312 -7.96875 -25.875 C -8.050781 -26.738281 -7.765625 -27.476562 -7.109375 -28.09375 C -6.453125 -28.707031 -5.113281 -29.472656 -3.09375 -30.390625 C -2.613281 -30.585938 -1.878906 -30.894531 -0.890625 -31.3125 C 0.0976562 -31.726562 1.207031 -32.171875 2.4375 -32.640625 C 3.664062 -33.117188 4.894531 -33.597656 6.125 -34.078125 C 7.351562 -34.554688 8.425781 -34.953125 9.34375 -35.265625 L 12.546875 -36.390625 L 13.328125 -37.9375 C 13.523438 -38.375 13.757812 -38.867188 14.03125 -39.421875 C 14.3125 -39.984375 14.53125 -40.441406 14.6875 -40.796875 C 15.363281 -42.265625 16.019531 -43.5625 16.65625 -44.6875 C 17.289062 -45.820312 17.742188 -46.507812 18.015625 -46.75 C 19.398438 -47.894531 20.59375 -47.972656 21.59375 -46.984375 C 21.820312 -46.742188 21.984375 -46.484375 22.078125 -46.203125 C 22.179688 -45.929688 22.316406 -45.394531 22.484375 -44.59375 C 22.679688 -43.644531 22.890625 -42.921875 23.109375 -42.421875 C 23.328125 -41.929688 23.691406 -41.410156 24.203125 -40.859375 C 24.398438 -40.660156 24.546875 -40.550781 24.640625 -40.53125 C 24.742188 -40.507812 24.9375 -40.519531 25.21875 -40.5625 C 25.414062 -40.632812 25.929688 -40.800781 26.765625 -41.0625 C 27.597656 -41.320312 28.507812 -41.585938 29.5 -41.859375 C 31.125 -42.335938 32.367188 -42.664062 33.234375 -42.84375 C 34.109375 -43.019531 34.773438 -43.078125 35.234375 -43.015625 C 35.691406 -42.960938 36.140625 -42.796875 36.578125 -42.515625 C 37.328125 -42.046875 37.640625 -41.34375 37.515625 -40.40625 C 37.398438 -39.476562 36.925781 -38.796875 36.09375 -38.359375 C 35.976562 -38.316406 35.523438 -38.144531 34.734375 -37.84375 C 33.941406 -37.550781 32.957031 -37.1875 31.78125 -36.75 C 30.613281 -36.3125 29.382812 -35.863281 28.09375 -35.40625 C 26.8125 -34.957031 25.570312 -34.515625 24.375 -34.078125 C 23.75 -33.878906 23.046875 -33.640625 22.265625 -33.359375 C 21.492188 -33.085938 20.890625 -32.847656 20.453125 -32.640625 L 18.859375 -32.109375 Z M 18.4375 -30.921875 "/></g></g></g><g fill="#8c52ff" fill-opacity="1"><g transform="translate(194.493345, 205.591544)"><g><path d="M 1.84375 -3.8125 C 2.082031 -3.8125 2.4375 -3.890625 2.90625 -4.046875 L 3.625 -4.28125 L 2.859375 -4.15625 C 2.460938 -4.125 2.125 -4.046875 1.84375 -3.921875 C 1.5625 -3.804688 1.5625 -3.769531 1.84375 -3.8125 Z M 6.953125 -5.359375 C 7.035156 -5.359375 7.34375 -5.445312 7.875 -5.625 C 8.414062 -5.800781 9.007812 -6.003906 9.65625 -6.234375 C 10.3125 -6.472656 10.878906 -6.675781 11.359375 -6.84375 C 13.066406 -7.550781 14.769531 -8.347656 16.46875 -9.234375 C 18.175781 -10.128906 19.722656 -11.035156 21.109375 -11.953125 C 22.492188 -12.867188 23.546875 -13.679688 24.265625 -14.390625 C 25.015625 -15.140625 25.4375 -15.671875 25.53125 -15.984375 C 25.632812 -16.304688 25.488281 -16.648438 25.09375 -17.015625 C 24.414062 -17.679688 22.945312 -18.359375 20.6875 -19.046875 C 18.4375 -19.742188 15.269531 -20.472656 11.1875 -21.234375 C 9.988281 -21.429688 8.84375 -21.644531 7.75 -21.875 C 6.664062 -22.113281 5.925781 -22.273438 5.53125 -22.359375 C 3.582031 -22.878906 2.125 -23.648438 1.15625 -24.671875 C 0.1875 -25.703125 -0.234375 -26.890625 -0.109375 -28.234375 C 0.00390625 -29.585938 0.695312 -30.941406 1.96875 -32.296875 C 2.875 -33.328125 3.988281 -34.285156 5.3125 -35.171875 C 6.644531 -36.066406 8.5 -37.128906 10.875 -38.359375 C 13.53125 -39.703125 16.078125 -40.789062 18.515625 -41.625 C 20.960938 -42.457031 23.125 -42.984375 25 -43.203125 C 26.882812 -43.421875 28.285156 -43.289062 29.203125 -42.8125 C 30.035156 -42.34375 30.550781 -41.691406 30.75 -40.859375 C 30.863281 -40.179688 30.691406 -39.484375 30.234375 -38.765625 C 29.785156 -38.054688 28.925781 -37.222656 27.65625 -36.265625 C 26.382812 -35.316406 24.578125 -34.109375 22.234375 -32.640625 C 21.171875 -32.015625 20.488281 -31.628906 20.1875 -31.484375 C 19.894531 -31.347656 19.6875 -31.335938 19.5625 -31.453125 C 19.363281 -31.648438 19.328125 -31.867188 19.453125 -32.109375 C 19.484375 -32.234375 19.804688 -32.628906 20.421875 -33.296875 C 21.035156 -33.972656 21.757812 -34.75 22.59375 -35.625 C 23.425781 -36.457031 24.140625 -37.179688 24.734375 -37.796875 C 25.328125 -38.410156 25.609375 -38.738281 25.578125 -38.78125 C 25.535156 -38.8125 25.222656 -38.738281 24.640625 -38.5625 C 24.066406 -38.382812 23.394531 -38.15625 22.625 -37.875 C 21.851562 -37.601562 21.128906 -37.328125 20.453125 -37.046875 C 18.316406 -36.171875 16.132812 -35.0625 13.90625 -33.71875 C 11.6875 -32.375 9.707031 -30.988281 7.96875 -29.5625 C 7.21875 -28.925781 6.84375 -28.546875 6.84375 -28.421875 C 6.84375 -28.265625 8.40625 -27.890625 11.53125 -27.296875 C 14.945312 -26.660156 17.929688 -25.960938 20.484375 -25.203125 C 23.046875 -24.453125 25.117188 -23.664062 26.703125 -22.84375 C 28.722656 -21.8125 30.128906 -20.519531 30.921875 -18.96875 C 31.117188 -18.488281 31.25 -18.097656 31.3125 -17.796875 C 31.375 -17.503906 31.40625 -17.003906 31.40625 -16.296875 C 31.40625 -15.503906 31.375 -14.957031 31.3125 -14.65625 C 31.25 -14.363281 31.039062 -13.835938 30.6875 -13.078125 C 30.40625 -12.484375 30.125 -12 29.84375 -11.625 C 29.570312 -11.25 29.160156 -10.800781 28.609375 -10.28125 C 26.191406 -7.90625 23.054688 -5.65625 19.203125 -3.53125 C 15.359375 -1.414062 11.117188 0.394531 6.484375 1.90625 C 1.285156 3.644531 -2.476562 4.296875 -4.8125 3.859375 C -5.925781 3.703125 -6.898438 3.171875 -7.734375 2.265625 C -8.484375 1.390625 -8.835938 0.378906 -8.796875 -0.765625 C -8.753906 -1.171875 -8.679688 -1.5 -8.578125 -1.75 C -8.484375 -2.007812 -8.335938 -2.296875 -8.140625 -2.609375 C -7.585938 -3.441406 -6.664062 -4.285156 -5.375 -5.140625 C -4.09375 -5.992188 -2.738281 -6.679688 -1.3125 -7.203125 C -0.519531 -7.472656 0.421875 -7.644531 1.515625 -7.71875 C 2.609375 -7.800781 3.585938 -7.765625 4.453125 -7.609375 C 5.367188 -7.453125 5.984375 -7.253906 6.296875 -7.015625 C 6.617188 -6.773438 6.800781 -6.398438 6.84375 -5.890625 C 6.84375 -5.535156 6.878906 -5.359375 6.953125 -5.359375 Z M 6.953125 -5.359375 "/></g></g></g><g fill="#8c52ff" fill-opacity="1"><g transform="translate(223.86775, 205.591544)"><g><path d="M 21.34375 -40.4375 C 21.34375 -40.238281 21.304688 -40.019531 21.234375 -39.78125 C 21.191406 -39.664062 21.195312 -39.585938 21.25 -39.546875 C 21.3125 -39.503906 21.484375 -39.503906 21.765625 -39.546875 C 21.921875 -39.585938 22.066406 -39.625 22.203125 -39.65625 C 22.347656 -39.695312 22.421875 -39.738281 22.421875 -39.78125 C 22.460938 -39.820312 22.429688 -39.898438 22.328125 -40.015625 C 22.234375 -40.140625 22.101562 -40.238281 21.9375 -40.3125 C 21.707031 -40.507812 21.5625 -40.617188 21.5 -40.640625 C 21.4375 -40.660156 21.382812 -40.59375 21.34375 -40.4375 Z M 18.4375 -30.921875 C 18.195312 -30.210938 17.847656 -29.179688 17.390625 -27.828125 C 16.929688 -26.484375 16.445312 -25.035156 15.9375 -23.484375 C 15.425781 -21.941406 14.953125 -20.503906 14.515625 -19.171875 C 14.078125 -17.847656 13.738281 -16.847656 13.5 -16.171875 C 12.863281 -14.078125 12.257812 -11.90625 11.6875 -9.65625 C 11.113281 -7.414062 10.632812 -5.351562 10.25 -3.46875 C 9.875 -1.59375 9.648438 -0.0976562 9.578125 1.015625 C 9.535156 1.722656 9.523438 2.15625 9.546875 2.3125 C 9.566406 2.476562 9.675781 2.660156 9.875 2.859375 C 9.945312 2.972656 10.03125 3.117188 10.125 3.296875 C 10.226562 3.472656 10.300781 3.644531 10.34375 3.8125 C 10.382812 4.125 10.265625 4.585938 9.984375 5.203125 C 9.710938 5.816406 9.414062 6.28125 9.09375 6.59375 C 8.820312 6.832031 8.457031 7 8 7.09375 C 7.539062 7.195312 7.132812 7.191406 6.78125 7.078125 C 6.425781 6.992188 6.078125 6.765625 5.734375 6.390625 C 5.398438 6.015625 5.132812 5.628906 4.9375 5.234375 C 4.738281 4.753906 4.566406 3.859375 4.421875 2.546875 C 4.285156 1.242188 4.179688 -0.195312 4.109375 -1.78125 C 4.066406 -4.320312 4.113281 -6.53125 4.25 -8.40625 C 4.382812 -10.289062 4.65625 -12.285156 5.0625 -14.390625 C 5.457031 -16.253906 5.867188 -17.945312 6.296875 -19.46875 C 6.734375 -21 7.332031 -22.875 8.09375 -25.09375 C 8.40625 -26.007812 8.679688 -26.789062 8.921875 -27.4375 C 9.160156 -28.09375 9.28125 -28.441406 9.28125 -28.484375 C 9.238281 -28.597656 9.117188 -28.617188 8.921875 -28.546875 C 7.804688 -28.148438 6.613281 -27.722656 5.34375 -27.265625 C 4.082031 -26.804688 3.234375 -26.476562 2.796875 -26.28125 C 2.398438 -26.125 1.8125 -25.914062 1.03125 -25.65625 C 0.257812 -25.40625 -0.535156 -25.148438 -1.359375 -24.890625 C -2.191406 -24.628906 -2.945312 -24.410156 -3.625 -24.234375 C -4.300781 -24.054688 -4.757812 -23.945312 -5 -23.90625 C -5.789062 -23.820312 -6.460938 -23.957031 -7.015625 -24.3125 C -7.566406 -24.675781 -7.882812 -25.195312 -7.96875 -25.875 C -8.050781 -26.738281 -7.765625 -27.476562 -7.109375 -28.09375 C -6.453125 -28.707031 -5.113281 -29.472656 -3.09375 -30.390625 C -2.613281 -30.585938 -1.878906 -30.894531 -0.890625 -31.3125 C 0.0976562 -31.726562 1.207031 -32.171875 2.4375 -32.640625 C 3.664062 -33.117188 4.894531 -33.597656 6.125 -34.078125 C 7.351562 -34.554688 8.425781 -34.953125 9.34375 -35.265625 L 12.546875 -36.390625 L 13.328125 -37.9375 C 13.523438 -38.375 13.757812 -38.867188 14.03125 -39.421875 C 14.3125 -39.984375 14.53125 -40.441406 14.6875 -40.796875 C 15.363281 -42.265625 16.019531 -43.5625 16.65625 -44.6875 C 17.289062 -45.820312 17.742188 -46.507812 18.015625 -46.75 C 19.398438 -47.894531 20.59375 -47.972656 21.59375 -46.984375 C 21.820312 -46.742188 21.984375 -46.484375 22.078125 -46.203125 C 22.179688 -45.929688 22.316406 -45.394531 22.484375 -44.59375 C 22.679688 -43.644531 22.890625 -42.921875 23.109375 -42.421875 C 23.328125 -41.929688 23.691406 -41.410156 24.203125 -40.859375 C 24.398438 -40.660156 24.546875 -40.550781 24.640625 -40.53125 C 24.742188 -40.507812 24.9375 -40.519531 25.21875 -40.5625 C 25.414062 -40.632812 25.929688 -40.800781 26.765625 -41.0625 C 27.597656 -41.320312 28.507812 -41.585938 29.5 -41.859375 C 31.125 -42.335938 32.367188 -42.664062 33.234375 -42.84375 C 34.109375 -43.019531 34.773438 -43.078125 35.234375 -43.015625 C 35.691406 -42.960938 36.140625 -42.796875 36.578125 -42.515625 C 37.328125 -42.046875 37.640625 -41.34375 37.515625 -40.40625 C 37.398438 -39.476562 36.925781 -38.796875 36.09375 -38.359375 C 35.976562 -38.316406 35.523438 -38.144531 34.734375 -37.84375 C 33.941406 -37.550781 32.957031 -37.1875 31.78125 -36.75 C 30.613281 -36.3125 29.382812 -35.863281 28.09375 -35.40625 C 26.8125 -34.957031 25.570312 -34.515625 24.375 -34.078125 C 23.75 -33.878906 23.046875 -33.640625 22.265625 -33.359375 C 21.492188 -33.085938 20.890625 -32.847656 20.453125 -32.640625 L 18.859375 -32.109375 Z M 18.4375 -30.921875 "/></g></g></g><g fill="#8c52ff" fill-opacity="1"><g transform="translate(246.879642, 205.591544)"><g><path d="M 15.046875 -14.265625 C 13.859375 -12.210938 12.828125 -10.570312 11.953125 -9.34375 C 11.078125 -8.113281 10.085938 -6.898438 8.984375 -5.703125 C 4.460938 -0.753906 0.832031 0.289062 -1.90625 -2.5625 C -2.5 -3.195312 -2.90625 -3.859375 -3.125 -4.546875 C -3.34375 -5.242188 -3.488281 -6.207031 -3.5625 -7.4375 C -3.601562 -8.820312 -3.492188 -10.265625 -3.234375 -11.765625 C -2.984375 -13.273438 -2.550781 -15 -1.9375 -16.9375 C -1.320312 -18.882812 -0.5 -21.164062 0.53125 -23.78125 C 1.164062 -25.332031 1.859375 -26.929688 2.609375 -28.578125 C 3.367188 -30.222656 3.984375 -31.441406 4.453125 -32.234375 C 5.722656 -34.253906 6.894531 -35.066406 7.96875 -34.671875 C 8.25 -34.546875 8.515625 -34.328125 8.765625 -34.015625 C 9.023438 -33.703125 9.15625 -33.40625 9.15625 -33.125 C 9.15625 -33.082031 9.015625 -32.6875 8.734375 -31.9375 C 8.460938 -31.1875 8.128906 -30.3125 7.734375 -29.3125 C 3.609375 -18.96875 1.546875 -11.953125 1.546875 -8.265625 C 1.546875 -7.753906 1.566406 -7.28125 1.609375 -6.84375 C 1.648438 -6.40625 1.6875 -6.144531 1.71875 -6.0625 C 2 -5.664062 2.8125 -6.0625 4.15625 -7.25 C 5.269531 -8.125 6.367188 -9.234375 7.453125 -10.578125 C 8.546875 -11.929688 9.75 -13.675781 11.0625 -15.8125 C 12.375 -17.957031 13.878906 -20.613281 15.578125 -23.78125 C 17.085938 -26.519531 18.285156 -28.703125 19.171875 -30.328125 C 20.066406 -31.953125 20.8125 -33.257812 21.40625 -34.25 C 21.601562 -34.570312 21.921875 -35.164062 22.359375 -36.03125 C 22.796875 -36.90625 23.234375 -37.835938 23.671875 -38.828125 C 24.304688 -40.222656 24.832031 -41.285156 25.25 -42.015625 C 25.664062 -42.742188 26.0625 -43.273438 26.4375 -43.609375 C 26.8125 -43.953125 27.253906 -44.179688 27.765625 -44.296875 C 28.203125 -44.460938 28.519531 -44.546875 28.71875 -44.546875 C 28.914062 -44.546875 29.210938 -44.460938 29.609375 -44.296875 C 30.171875 -44.140625 30.660156 -43.851562 31.078125 -43.4375 C 31.492188 -43.019531 31.78125 -42.535156 31.9375 -41.984375 C 32.050781 -41.671875 32.097656 -41.285156 32.078125 -40.828125 C 32.054688 -40.367188 31.925781 -39.710938 31.6875 -38.859375 C 31.457031 -38.003906 31.09375 -36.804688 30.59375 -35.265625 C 30.101562 -33.722656 29.441406 -31.679688 28.609375 -29.140625 C 28.410156 -28.503906 28.09375 -27.5 27.65625 -26.125 C 27.21875 -24.757812 26.800781 -23.445312 26.40625 -22.1875 C 26.007812 -20.914062 25.628906 -19.691406 25.265625 -18.515625 C 24.910156 -17.347656 24.675781 -16.585938 24.5625 -16.234375 C 24.4375 -15.921875 24.242188 -15.375 23.984375 -14.59375 C 23.734375 -13.820312 23.488281 -13.0625 23.25 -12.3125 C 23.007812 -11.5625 22.679688 -10.570312 22.265625 -9.34375 C 21.847656 -8.113281 21.460938 -7.019531 21.109375 -6.0625 C 20.753906 -5.113281 20.378906 -4.082031 19.984375 -2.96875 C 19.585938 -1.863281 19.289062 -1.03125 19.09375 -0.46875 C 18.894531 0.0820312 18.675781 0.613281 18.4375 1.125 C 18.195312 1.644531 18.035156 1.960938 17.953125 2.078125 C 17.554688 2.628906 17.039062 2.984375 16.40625 3.140625 C 15.78125 3.304688 15.1875 3.226562 14.625 2.90625 C 13.757812 2.476562 13.34375 1.488281 13.375 -0.0625 C 13.375 -0.457031 13.460938 -1.226562 13.640625 -2.375 C 13.828125 -3.53125 14.035156 -4.828125 14.265625 -6.265625 C 14.503906 -7.710938 14.753906 -9.109375 15.015625 -10.453125 C 15.273438 -11.804688 15.484375 -12.863281 15.640625 -13.625 C 15.796875 -14.25 15.921875 -14.78125 16.015625 -15.21875 C 16.117188 -15.65625 16.148438 -15.875 16.109375 -15.875 C 16.078125 -15.875 15.960938 -15.710938 15.765625 -15.390625 C 15.566406 -15.078125 15.328125 -14.703125 15.046875 -14.265625 Z M 15.046875 -14.265625 "/></g></g></g><g fill="#8c52ff" fill-opacity="1"><g transform="translate(274.945988, 205.591544)"><g><path d="M 11.953125 -25.625 C 11.835938 -25.113281 11.640625 -24.367188 11.359375 -23.390625 C 11.078125 -22.421875 10.816406 -21.503906 10.578125 -20.640625 C 10.347656 -19.878906 10.09375 -18.984375 9.8125 -17.953125 C 9.53125 -16.921875 9.257812 -15.921875 9 -14.953125 C 8.75 -13.984375 8.539062 -13.179688 8.375 -12.546875 C 8.21875 -11.910156 8.140625 -11.570312 8.140625 -11.53125 C 8.140625 -11.414062 8.367188 -11.523438 8.828125 -11.859375 C 9.285156 -12.203125 10.269531 -12.988281 11.78125 -14.21875 C 15.425781 -17.1875 18.703125 -20.035156 21.609375 -22.765625 C 24.523438 -25.503906 26.957031 -28.023438 28.90625 -30.328125 C 29.613281 -31.203125 30.265625 -32.046875 30.859375 -32.859375 C 31.453125 -33.671875 31.75 -34.15625 31.75 -34.3125 C 31.75 -34.425781 31.59375 -34.546875 31.28125 -34.671875 C 31.125 -34.753906 30.609375 -34.820312 29.734375 -34.875 C 28.859375 -34.9375 27.851562 -34.976562 26.71875 -35 C 25.59375 -35.019531 24.484375 -35.019531 23.390625 -35 C 22.304688 -34.976562 21.46875 -34.925781 20.875 -34.84375 C 19.289062 -34.6875 17.882812 -34.507812 16.65625 -34.3125 C 15.425781 -34.113281 14.75 -33.957031 14.625 -33.84375 C 14.550781 -33.757812 14.351562 -33.234375 14.03125 -32.265625 C 13.71875 -31.296875 13.363281 -30.1875 12.96875 -28.9375 C 12.570312 -27.6875 12.234375 -26.582031 11.953125 -25.625 Z M -2.5 -28.609375 C -3.289062 -28.210938 -3.851562 -27.953125 -4.1875 -27.828125 C -4.53125 -27.710938 -4.859375 -27.675781 -5.171875 -27.71875 C -5.847656 -27.789062 -6.40625 -28.101562 -6.84375 -28.65625 C -7.28125 -29.21875 -7.5 -29.875 -7.5 -30.625 C -7.5 -32.488281 -6.050781 -34.300781 -3.15625 -36.0625 C -0.257812 -37.832031 3.644531 -39.289062 8.5625 -40.4375 C 9.351562 -40.632812 10.054688 -40.789062 10.671875 -40.90625 C 11.285156 -41.03125 11.632812 -41.113281 11.71875 -41.15625 C 12.070312 -41.226562 12.40625 -41.601562 12.71875 -42.28125 C 13.195312 -43.03125 13.613281 -43.546875 13.96875 -43.828125 C 14.332031 -44.109375 14.734375 -44.25 15.171875 -44.25 C 16.160156 -44.25 16.753906 -43.710938 16.953125 -42.640625 L 17.0625 -41.984375 L 18.140625 -42.109375 C 18.410156 -42.140625 19.101562 -42.175781 20.21875 -42.21875 C 21.332031 -42.257812 22.519531 -42.300781 23.78125 -42.34375 C 27.113281 -42.414062 29.8125 -42.296875 31.875 -41.984375 C 33.9375 -41.671875 35.53125 -41.109375 36.65625 -40.296875 C 37.789062 -39.484375 38.597656 -38.363281 39.078125 -36.9375 C 39.472656 -35.820312 39.539062 -34.539062 39.28125 -33.09375 C 39.019531 -31.644531 38.453125 -30.164062 37.578125 -28.65625 C 36.785156 -27.3125 35.863281 -25.960938 34.8125 -24.609375 C 33.769531 -23.265625 32.429688 -21.738281 30.796875 -20.03125 C 29.171875 -18.332031 27.09375 -16.273438 24.5625 -13.859375 C 23.375 -12.742188 21.992188 -11.503906 20.421875 -10.140625 C 18.859375 -8.773438 17.242188 -7.394531 15.578125 -6 C 13.910156 -4.613281 12.320312 -3.34375 10.8125 -2.1875 C 9.3125 -1.039062 8.023438 -0.113281 6.953125 0.59375 C 5.523438 1.539062 4.34375 2.234375 3.40625 2.671875 C 2.476562 3.109375 1.679688 3.347656 1.015625 3.390625 C 0.648438 3.429688 0.328125 3.421875 0.046875 3.359375 C -0.222656 3.296875 -0.457031 3.25 -0.65625 3.21875 C -1.40625 2.8125 -1.976562 2.113281 -2.375 1.125 C -2.96875 -0.5 -2.351562 -2.28125 -0.53125 -4.21875 C -0.175781 -4.570312 0.175781 -4.925781 0.53125 -5.28125 C 0.894531 -5.644531 1.15625 -5.882812 1.3125 -6 C 1.625 -6.238281 1.828125 -6.503906 1.921875 -6.796875 C 2.023438 -7.097656 2.195312 -7.847656 2.4375 -9.046875 C 2.71875 -10.472656 3.082031 -12.242188 3.53125 -14.359375 C 3.988281 -16.484375 4.457031 -18.476562 4.9375 -20.34375 C 5.050781 -20.894531 5.265625 -21.722656 5.578125 -22.828125 C 5.898438 -23.941406 6.238281 -25.113281 6.59375 -26.34375 C 6.957031 -27.570312 7.296875 -28.679688 7.609375 -29.671875 C 7.929688 -30.660156 8.171875 -31.351562 8.328125 -31.75 C 8.441406 -32.113281 8.5 -32.351562 8.5 -32.46875 C 8.457031 -32.507812 8.160156 -32.457031 7.609375 -32.3125 C 7.054688 -32.175781 6.410156 -32 5.671875 -31.78125 C 4.941406 -31.5625 4.289062 -31.34375 3.71875 -31.125 C 3.144531 -30.914062 2.816406 -30.769531 2.734375 -30.6875 C 2.648438 -30.644531 2.789062 -30.367188 3.15625 -29.859375 C 4.0625 -28.660156 4.515625 -27.945312 4.515625 -27.71875 C 4.515625 -27.550781 4.175781 -27.675781 3.5 -28.09375 C 2.832031 -28.507812 2.101562 -29.078125 1.3125 -29.796875 C 1.15625 -29.953125 1.015625 -30.039062 0.890625 -30.0625 C 0.773438 -30.082031 0.519531 -30.015625 0.125 -29.859375 C -0.0703125 -29.773438 -0.425781 -29.613281 -0.9375 -29.375 C -1.457031 -29.132812 -1.976562 -28.878906 -2.5 -28.609375 Z M -2.5 -28.609375 "/></g></g></g><g fill="#8c52ff" fill-opacity="1"><g transform="translate(310.801922, 205.591544)"><g><path d="M 29.859375 -36.8125 C 29.378906 -35.820312 28.800781 -34.570312 28.125 -33.0625 C 27.457031 -31.5625 26.753906 -30.015625 26.015625 -28.421875 C 25.285156 -26.835938 24.640625 -25.410156 24.078125 -24.140625 C 23.523438 -22.867188 23.128906 -21.957031 22.890625 -21.40625 C 22.773438 -21.164062 22.488281 -20.519531 22.03125 -19.46875 C 21.570312 -18.425781 21.085938 -17.289062 20.578125 -16.0625 C 18.398438 -11.0625 16.546875 -6.847656 15.015625 -3.421875 C 13.484375 0.00390625 12.210938 2.78125 11.203125 4.90625 C 10.191406 7.03125 9.367188 8.625 8.734375 9.6875 C 8.109375 10.757812 7.597656 11.472656 7.203125 11.828125 C 6.484375 12.460938 5.769531 12.660156 5.0625 12.421875 C 4.300781 12.148438 3.867188 11.707031 3.765625 11.09375 C 3.671875 10.476562 3.863281 9.613281 4.34375 8.5 C 4.539062 8.0625 4.71875 7.632812 4.875 7.21875 C 5.03125 6.800781 5.148438 6.492188 5.234375 6.296875 C 5.429688 5.742188 5.816406 4.601562 6.390625 2.875 C 6.960938 1.15625 7.585938 -0.710938 8.265625 -2.734375 C 8.578125 -3.765625 8.984375 -4.972656 9.484375 -6.359375 C 9.984375 -7.742188 10.367188 -8.894531 10.640625 -9.8125 C 11.429688 -12.03125 12.015625 -13.703125 12.390625 -14.828125 C 12.773438 -15.960938 13.035156 -16.726562 13.171875 -17.125 C 13.304688 -17.519531 13.375 -17.71875 13.375 -17.71875 C 13.375 -17.71875 13.207031 -17.648438 12.875 -17.515625 C 12.539062 -17.378906 12.132812 -17.210938 11.65625 -17.015625 C 10.90625 -16.734375 10.332031 -16.539062 9.9375 -16.4375 C 9.539062 -16.34375 8.984375 -16.273438 8.265625 -16.234375 C 5.765625 -16.078125 3.765625 -16.890625 2.265625 -18.671875 C 0.273438 -21.128906 -0.257812 -24.457031 0.65625 -28.65625 C 0.851562 -29.570312 1.207031 -30.671875 1.71875 -31.953125 C 2.238281 -33.242188 2.820312 -34.515625 3.46875 -35.765625 C 4.125 -37.015625 4.734375 -38.035156 5.296875 -38.828125 C 5.847656 -39.585938 6.476562 -40.070312 7.1875 -40.28125 C 7.90625 -40.5 8.582031 -40.46875 9.21875 -40.1875 C 9.851562 -39.914062 10.269531 -39.382812 10.46875 -38.59375 C 10.539062 -38.195312 10.476562 -37.460938 10.28125 -36.390625 C 10.207031 -35.953125 10.128906 -35.484375 10.046875 -34.984375 C 9.972656 -34.492188 9.914062 -34.128906 9.875 -33.890625 C 9.832031 -33.378906 9.710938 -32.984375 9.515625 -32.703125 C 9.316406 -32.429688 9.117188 -32.410156 8.921875 -32.640625 C 8.796875 -32.847656 8.675781 -32.859375 8.5625 -32.671875 C 8.445312 -32.492188 8.25 -32.070312 7.96875 -31.40625 C 7.375 -29.894531 6.988281 -28.394531 6.8125 -26.90625 C 6.632812 -25.414062 6.679688 -24.296875 6.953125 -23.546875 C 7.117188 -23.273438 7.238281 -23.097656 7.3125 -23.015625 C 7.394531 -22.929688 7.632812 -22.890625 8.03125 -22.890625 C 8.820312 -22.890625 9.878906 -23.363281 11.203125 -24.3125 C 12.535156 -25.269531 13.816406 -26.460938 15.046875 -27.890625 C 16.472656 -29.597656 17.660156 -31.203125 18.609375 -32.703125 C 19.566406 -34.210938 20.476562 -35.9375 21.34375 -37.875 C 21.9375 -39.226562 22.5 -40.421875 23.03125 -41.453125 C 23.570312 -42.484375 24.101562 -43.351562 24.625 -44.0625 C 25.257812 -45.019531 26.007812 -45.644531 26.875 -45.9375 C 27.75 -46.238281 28.59375 -46.269531 29.40625 -46.03125 C 30.21875 -45.789062 30.867188 -45.3125 31.359375 -44.59375 C 31.859375 -43.882812 32.050781 -42.992188 31.9375 -41.921875 C 31.894531 -41.679688 31.6875 -41.097656 31.3125 -40.171875 C 30.9375 -39.242188 30.453125 -38.125 29.859375 -36.8125 Z M 29.859375 -36.8125 "/></g></g></g></svg>